PathFileType	4	(X/Y/Z)	./resultDataOpenSim/trcMotMarkerGrf/sub06/qtm-14-07.trc
DataRate	CameraRate	NumFrames	NumMarkers	Units	OrigDataRate	OrigDataStartFrame	OrigNumFrames
250.000000	250.000000	7	24	m	250.000000	330	527
Frame#	Time	L.Toe.Tip			R.Toe.Tip			L.Ankle.Lat			R.Ankle.Lat			L.Ankle.Med			R.Ankle.Med			L.Heel			R.Heel			L.Knee.Lat			R.Knee.Lat			L.Knee.Med			R.Knee.Med			L.Thigh.Upper			R.Thigh.Upper			L.ASIS			R.ASIS			V.Sacral			L.Acromium			R.Acromium			C7			L.Elbow			R.Elbow			L.Wrist.Lat			R.Wrist.Lat
		X1	Y1	Z1	X2	Y2	Z2	X3	Y3	Z3	X4	Y4	Z4	X5	Y5	Z5	X6	Y6	Z6	X7	Y7	Z7	X8	Y8	Z8	X9	Y9	Z9	X10	Y10	Z10	X11	Y11	Z11	X12	Y12	Z12	X13	Y13	Z13	X14	Y14	Z14	X15	Y15	Z15	X16	Y16	Z16	X17	Y17	Z17	X18	Y18	Z18	X19	Y19	Z19	X20	Y20	Z20	X21	Y21	Z21	X22	Y22	Z22	X23	Y23	Z23	X24	Y24	Z24

330	1.316	0.41664129	0.1073597	-0.059449593	0.96122703	0.035289126	0.068216298	0.43741586	0.23802462	-0.087649029	0.82640219	0.058951753	0.099124419	0.46204167	0.23772865	-0.0058530714	0.84205682	0.082086818	0.012118897	0.40019016	0.29880745	-0.033853328	0.76782752	0.039872323	0.04313615	0.7837076	0.36302526	-0.13804835	0.92121264	0.43251952	0.14215021	0.79556692	0.35033417	-0.014720206	0.88181025	0.42757483	0.020920745	0.70149955	0.74741488	-0.11733182	0.77145664	0.77788967	0.21933503	0.78505233	0.80000042	-0.094637038	0.84204849	0.82508147	0.14573264	0.63346008	0.89386937	0.065571272	0.77193837	1.3022641	-0.13854952	0.76768716	1.274934	0.22087873	0.69650317	1.3296135	0.041777308	0.80154872	0.98056078	-0.21977696	0.63681123	0.98806124	0.27864956	1.0293357	0.89018509	-0.16347486	0.74297705	0.78013879	0.35363898
331	1.32	0.43004257	0.11072457	-0.060276475	0.96117163	0.035290687	0.068251445	0.44994372	0.24158543	-0.088126042	0.82639969	0.058957421	0.099212958	0.47486325	0.24121629	-0.0065690477	0.84198384	0.082241887	0.012256365	0.4125203	0.30214444	-0.034321859	0.7677563	0.039986558	0.04326197	0.79611105	0.36700271	-0.13855813	0.92198062	0.43266837	0.14233087	0.80770662	0.35412596	-0.014935928	0.88236527	0.42807564	0.021192269	0.70809097	0.75016281	-0.1174585	0.77559372	0.77978152	0.21940045	0.79120936	0.80274243	-0.094000528	0.8472617	0.82740646	0.14686812	0.63893373	0.89619598	0.065497873	0.77671256	1.3047586	-0.13879053	0.77352217	1.2777112	0.22064768	0.7018016	1.332139	0.041750967	0.80413012	0.9826289	-0.21977001	0.64417874	0.98979981	0.27962948	1.0310492	0.8897822	-0.16489817	0.75526239	0.78367046	0.35315149
332	1.324	0.4435029	0.11386821	-0.061036567	0.96110751	0.035294166	0.068271508	0.46245249	0.24492809	-0.088598437	0.82637996	0.058979509	0.099296798	0.4876905	0.24449148	-0.0072714793	0.84188899	0.082403685	0.012391941	0.42484069	0.30520174	-0.034728887	0.76767695	0.040092217	0.043395311	0.80845769	0.37110268	-0.13902753	0.92267619	0.43288823	0.1423962	0.81965828	0.35803768	-0.015091562	0.88268909	0.4285439	0.021421339	0.71469499	0.752897	-0.11767245	0.77997597	0.7817357	0.21957044	0.79746175	0.80554246	-0.093278671	0.85248466	0.82981935	0.14793241	0.64448314	0.89847441	0.065303427	0.78151331	1.3072381	-0.13900373	0.77932386	1.2805145	0.22042378	0.70717881	1.3345791	0.041656168	0.80660406	0.98470027	-0.21972638	0.65146503	0.9916031	0.28057622	1.0326692	0.88937102	-0.16637986	0.76749059	0.78735886	0.35263007
333	1.328	0.45702826	0.11679931	-0.061733766	0.96103491	0.035299134	0.068276786	0.4749765	0.24805595	-0.089116619	0.82632096	0.059016318	0.09938672	0.50051497	0.24755154	-0.0079634431	0.84177629	0.082571759	0.012526359	0.43712924	0.30797535	-0.035063398	0.76759792	0.040184679	0.043514794	0.82073127	0.37531584	-0.13946088	0.92329625	0.43317328	0.14239241	0.83154685	0.36208171	-0.015243262	0.88285572	0.42896719	0.021584959	0.72131422	0.75566147	-0.11792768	0.78457384	0.78373074	0.21980105	0.8038339	0.80840277	-0.092437694	0.85764041	0.83225346	0.14886953	0.64995158	0.90070604	0.064938957	0.78634091	1.3096974	-0.13920196	0.78509679	1.283339	0.2202067	0.71265164	1.3369347	0.041479588	0.8090662	0.9867796	-0.21966783	0.658699	0.99346989	0.28150247	1.0342106	0.88894634	-0.16792037	0.77962914	0.7911838	0.35206387
334	1.332	0.47063508	0.1195226	-0.062440178	0.96095869	0.035304588	0.068267915	0.4875333	0.25097059	-0.089686481	0.82619393	0.059074919	0.099500323	0.51332796	0.2503983	-0.0086434887	0.84165278	0.082743681	0.012658904	0.4493714	0.3104819	-0.035351246	0.7675201	0.040268949	0.043616789	0.83291876	0.37962656	-0.13985732	0.923819	0.43350702	0.14236177	0.84340389	0.36624588	-0.0153992	0.88299616	0.4293343	0.021661798	0.72795609	0.75853802	-0.11813389	0.7893374	0.78575187	0.22002704	0.81028424	0.81131511	-0.091544622	0.86271659	0.83467723	0.14966188	0.65523184	0.90293222	0.064362791	0.79119383	1.3121341	-0.1393963	0.79083918	1.2861816	0.21999533	0.71818925	1.339237	0.041237956	0.8115475	0.98886345	-0.21960853	0.66591128	0.99539042	0.28241904	1.0356748	0.88850678	-0.16952707	0.79165302	0.79513393	0.35144853
335	1.336	0.48434052	0.12203923	-0.063210607	0.9608844	0.035311523	0.068245391	0.50013175	0.25366573	-0.09027687	0.82598553	0.059163686	0.099647805	0.52612201	0.25303817	-0.0093071266	0.84152456	0.082917353	0.012787012	0.46157772	0.31273193	-0.035642379	0.76743868	0.040358843	0.043713382	0.84501467	0.38401702	-0.14021415	0.92423821	0.43386	0.14230825	0.85520332	0.37051105	-0.015546192	0.88324142	0.42963728	0.021637852	0.73463087	0.76156328	-0.11825286	0.79421957	0.78777918	0.22019599	0.81670151	0.81426089	-0.090762315	0.8677843	0.83711802	0.15034625	0.66040125	0.90520527	0.063654569	0.79607098	1.314548	-0.13958744	0.79654709	1.2890389	0.21978777	0.72371116	1.3415425	0.040979283	0.81404461	0.99094827	-0.21955249	0.67313392	0.99735154	0.28333668	1.0370531	0.88805355	-0.17120738	0.80358162	0.79921869	0.35079959
336	1.34	0.49815542	0.12434752	-0.064049917	0.96081504	0.035321879	0.068210582	0.51277178	0.25613387	-0.090856528	0.82573598	0.059277175	0.099813589	0.5388925	0.25547841	-0.0099521342	0.84139834	0.083091452	0.012904129	0.47375683	0.31473239	-0.035969652	0.76735222	0.040466171	0.043811659	0.85701905	0.38847156	-0.14053398	0.92459665	0.4342025	0.14222267	0.86690641	0.37487269	-0.015673617	0.8835792	0.4298895	0.021528967	0.74134792	0.76466639	-0.11836208	0.79918573	0.78978943	0.2202828	0.82301401	0.81722049	-0.090197823	0.87290334	0.83960423	0.15096087	0.66563459	0.90754085	0.063010366	0.80097129	1.3169383	-0.13976658	0.80221976	1.2919056	0.21958198	0.72914834	1.3438918	0.040751012	0.81654748	0.99303249	-0.21949887	0.68039407	0.99934311	0.2842656	1.0383468	0.8875856	-0.1729604	0.81546031	0.80344959	0.35013881
